<svg id="Capa_1" enable-background="new 0 0 512 512" height="512" viewBox="0 0 512 512" width="512" xmlns="http://www.w3.org/2000/svg"><path d="m4 412c-.037.189-2.614 1.471-2.65 1.66-.9 4.61-1.35 9.33-1.35 14.09v69.25c0 8.28 6.72 15 15 15h46l2-3v-66z" fill="#fdd2a6"/><path d="m296 413-58 31v65l2 3h46c8.28 0 15-6.72 15-15v-69.1c0-4.84-.453-9.543-1.363-14.233z" fill="#febd89"/><path d="m299.37 412.45-59.37 32.55v67h-179v-66.77l-59.53-32.13c6.133-30.981 31.115-54.879 62.51-59.54l47.9-7.11c24.315 12.656 53.332 12.71 77.59.34l47.34 6.89c30.899 4.491 56.055 27.773 62.56 58.77z" fill="#30d9f6"/><path d="m299.37 412.45-59.37 32.55v67h-89v-155.99c5.959 0 12.507-.844 12.74-.96 9.281-1.359 17.651-4.22 25.73-8.26 21.292 3.097-16.501-2.407 47.34 6.89 30.9 4.49 56.05 27.77 62.56 58.77z" fill="#19c0ef"/><path d="m467 0h-271c-24.813 0-45 20.187-45 45v211c0 24.813 20.187 45 45 45h132.293l-12.089 72.534c-1.53 9.177 5.58 17.466 14.792 17.466 3.917 0 7.783-1.534 10.67-4.453l84.596-85.547h40.738c24.813 0 45-20.187 45-45v-211c0-24.813-20.187-45-45-45z" fill="#ffda2d"/><path d="m512 45v211c0 24.81-20.19 45-45 45h-40.74l-84.59 85.55c-2.64 2.67-6.1 4.18-9.67 4.41v-390.96h135c24.81 0 45 20.19 45 45z" fill="#fcbe29"/><path d="m196 343.08v46.39c0 17.38-14.15 31.53-31.53 31.53h-26.94c-17.38 0-31.53-14.15-31.53-31.53v-46.39c27.435 17.205 62.46 17.271 90 0z" fill="#19c0ef"/><path d="m196 343.08v46.39c0 17.38-14.15 31.53-31.53 31.53h-13.47v-64.99c16.223 0 31.808-4.632 45-12.93z" fill="#159be1"/><path d="m166 354.68v34.79c0 .84-.69 1.53-1.53 1.53h-26.94c-.84 0-1.53-.69-1.53-1.53v-34.79c9.846 1.759 20.135 1.763 30 0z" fill="#fdd2a6"/><path d="m166 354.68v34.79c0 .84-.69 1.53-1.53 1.53h-13.47v-35c5.832 0 10.286-.534 15-1.32z" fill="#febd89"/><path d="m61 420.216v25.014l-59.65-31.57c1.89-9.95 5.792-19.43 11.472-27.85l40.164 21.132c4.928 2.594 8.014 7.705 8.014 13.274z" fill="#19c0ef"/><path d="m240 420.216v24.844c16.346-8.607 4.42-2.329 59.637-31.393-1.89-9.95-5.853-19.402-11.533-27.822l-40.09 21.098c-4.928 2.593-8.014 7.704-8.014 13.273z" fill="#159be1"/><path d="m241 241v30c0 49.63-40.37 90-90 90s-90-40.37-90-90c0-5.223 0-10.447 0-15.67l4.989-4.624s5.177.284 10.042.284c52.524 0 86.43-28.53 86.43-28.53.94-.93 2.21-1.46 3.54-1.46h68.583l5.157 5c.825 4.888 1.259 9.881 1.259 15z" fill="#fdd2a6"/><path d="m241 271c0 49.41-40.131 90-90 90v-130.71c7.43-4.44 11.46-7.83 11.46-7.83.94-.93 2.21-1.46 3.54-1.46h68.58l5.16 5c1.62 9.542 1.26 13.231 1.26 45z" fill="#febd89"/><path d="m239.74 226h-73.74s-35 35-105 29.38v-14.38c0-49.63 40.37-90 90-90 44.52 0 81.59 32.49 88.74 75z" fill="#193b66"/><path d="m239.74 226h-73.74s-5 5-15 10.92v-85.92c44.52 0 81.59 32.49 88.74 75z" fill="#112b48"/><circle cx="331.5" cy="226" fill="#fc585a" r="15"/><path d="m346.5 226c0 8.11-6.45 14.73-14.5 14.99v-29.98c8.05.26 14.5 6.88 14.5 14.99z" fill="#fa195e"/><path d="m331.5 61c-33.084 0-60 26.916-60 60 0 8.284 6.716 15 15 15s15-6.716 15-15c0-16.542 13.458-30 30-30s30 13.458 30 30-13.458 30-30 30c-8.284 0-15 6.716-15 15v15c0 8.284 6.716 15 15 15s15-6.716 15-15v-1.898c25.85-6.678 45-30.195 45-58.102 0-33.084-26.916-60-60-60z" fill="#fc585a"/><path d="m391.5 121c0 27.91-19.15 51.42-45 58.1v1.9c0 8.11-6.45 14.73-14.5 14.99v-45c16.31-.26 29.5-13.62 29.5-29.99s-13.19-29.73-29.5-29.99v-30c32.85.26 59.5 27.08 59.5 59.99z" fill="#fa195e"/></svg>